<?xml version="1.0" encoding="utf-8"?>
<!-- Generator: Adobe Illustrator 16.0.3, SVG Export Plug-In . SVG Version: 6.00 Build 0)  -->
<!DOCTYPE svg PUBLIC "-//W3C//DTD SVG 1.1//EN" "http://www.w3.org/Graphics/SVG/1.1/DTD/svg11.dtd">
<svg version="1.1" id="圖層_1" xmlns="http://www.w3.org/2000/svg" xmlns:xlink="http://www.w3.org/1999/xlink" x="0px" y="0px"
	 width="50px" height="200px" viewBox="0 0 50 200" enable-background="new 0 0 50 200" xml:space="preserve">
<g>
	<g>
		<rect fill="none" width="50" height="50"/>
	</g>
	<path fill="#FFFFFF" d="M25.009,19.191L11.936,32.266c-0.418,0.418-1.096,0.418-1.512,0l-1.64-1.64
		c-0.418-0.417-0.418-1.095,0-1.513l15.379-15.377c0.218-0.22,0.508-0.316,0.794-0.307c0.314-0.037,0.642,0.049,0.883,0.291
		l15.376,15.376c0.42,0.417,0.42,1.095,0,1.514l-1.638,1.637c-0.418,0.419-1.095,0.419-1.513,0L25.009,19.191z"/>
</g>
<g>
	<g>
		<rect y="50" fill="none" width="50" height="50"/>
	</g>
	<g>
		<path fill="#FFFFFF" d="M37.311,64.416c-0.424-0.422-0.93-0.635-1.523-0.635H14.214c-0.593,0-1.102,0.213-1.523,0.635
			c-0.423,0.422-0.634,0.93-0.634,1.523v14.67c0,0.592,0.211,1.102,0.634,1.523c0.422,0.422,0.93,0.635,1.523,0.635h7.335
			c0,0.34-0.073,0.691-0.216,1.051s-0.288,0.674-0.432,0.943c-0.145,0.27-0.215,0.467-0.215,0.592c0,0.234,0.085,0.438,0.256,0.607
			c0.17,0.172,0.373,0.256,0.607,0.256h6.903c0.233,0,0.436-0.084,0.606-0.256c0.171-0.17,0.256-0.373,0.256-0.607
			c0-0.115-0.072-0.311-0.215-0.586c-0.145-0.273-0.288-0.594-0.432-0.957c-0.145-0.363-0.216-0.713-0.216-1.043h7.335
			c0.594,0,1.1-0.213,1.523-0.635c0.422-0.422,0.633-0.932,0.633-1.523v-14.67C37.943,65.346,37.732,64.838,37.311,64.416z
			 M36.218,77.156c0,0.117-0.043,0.217-0.128,0.303c-0.086,0.088-0.187,0.131-0.303,0.131H14.214c-0.117,0-0.218-0.043-0.303-0.131
			c-0.085-0.086-0.128-0.186-0.128-0.303V65.939c0-0.117,0.043-0.219,0.128-0.303c0.085-0.086,0.187-0.129,0.303-0.129h21.573
			c0.116,0,0.218,0.041,0.303,0.129c0.085,0.084,0.128,0.186,0.128,0.303V77.156L36.218,77.156z"/>
	</g>
</g>
<g>
	<g>
		<rect y="100" fill="none" width="50" height="50"/>
	</g>
	<g>
		<path fill="#FFFFFF" d="M31.237,110.178H18.764c-1.193,0-2.157,0.969-2.157,2.158v25.328c0,1.189,0.964,2.156,2.157,2.156h12.474
			c1.19,0,2.155-0.967,2.155-2.156v-25.328C33.393,111.146,32.428,110.178,31.237,110.178z M21.922,111.49h6.158
			c0.155,0,0.281,0.23,0.281,0.518c0,0.289-0.126,0.521-0.281,0.521h-6.158c-0.156,0-0.28-0.232-0.28-0.521
			C21.642,111.721,21.766,111.49,21.922,111.49z M25.001,137.689c-0.759,0-1.377-0.617-1.377-1.377s0.618-1.377,1.377-1.377
			c0.758,0,1.374,0.617,1.374,1.377S25.759,137.689,25.001,137.689z M31.776,132.969H18.224V113.82h13.553V132.969z"/>
	</g>
</g>
<g>
	<g>
		<rect y="150" fill="none" width="50" height="50"/>
	</g>
	<g>
		<path fill-rule="evenodd" clip-rule="evenodd" fill="#FFFFFF" d="M30.916,161.234h-2.77c0,0-5.777-0.433-5.777,5.658
			c0,1.302,0,4.188,0,4.188h-3.924l0.011,3.279h3.912l0.002,14.412h3.932v-14.412h4.329l0.925-3.279h-5.232v-4.312
			c0,0-0.043-1.599,1.83-1.599h2.746L30.916,161.234z"/>
	</g>
</g>
</svg>
