<?xml version="1.0" encoding="utf-8"?>
<!-- Generator: Adobe Illustrator 16.0.3, SVG Export Plug-In . SVG Version: 6.00 Build 0)  -->
<!DOCTYPE svg PUBLIC "-//W3C//DTD SVG 1.1//EN" "http://www.w3.org/Graphics/SVG/1.1/DTD/svg11.dtd">
<svg version="1.1" id="圖層_1" xmlns="http://www.w3.org/2000/svg" xmlns:xlink="http://www.w3.org/1999/xlink" x="0px" y="0px"
	 width="50px" height="750px" viewBox="0 0 50 750" enable-background="new 0 0 50 750" xml:space="preserve">
<g>
	<g>
		<rect y="0" fill="none" width="50" height="50"/>
	</g>
	<g>
		<path fill="#FCC80D" d="M17.498,35.761c-1.851,0-3.353-1.502-3.353-3.354c0-1.85,1.501-3.352,3.353-3.352s3.356,1.502,3.356,3.352
			C20.854,34.261,19.349,35.761,17.498,35.761z M28.865,33.523c0,0.557-0.217,1.076-0.611,1.471
			c-0.395,0.392-0.92,0.607-1.479,0.607c-1.15,0-2.083-0.933-2.083-2.078l-0.021-1.164c0-3.726-3.027-6.75-6.751-6.75h-1.634
			c-1.158,0-2.102-0.942-2.102-2.105c0-1.162,0.944-2.104,2.102-2.104h0.947h0.688c5.854,0,10.66,4.583,10.935,10.436
			c0.008,0.041,0.016,0.072,0.016,0.111l0.005,0.205c0.007,0.065,0.013,0.137,0.013,0.209L28.865,33.523z M35.854,32.472
			c0,0.004,0,0.008,0,0.014v0.984c0,1.053-0.858,1.907-1.922,1.907c-1.062,0-1.923-0.854-1.923-1.907v-1.404
			c-0.216-7.67-6.446-13.854-14.14-13.989c-0.01,0-0.025,0.004-0.036,0.004h-1.776c-1.055,0-1.91-0.858-1.91-1.921
			c0-1.062,0.854-1.921,1.91-1.921h1.777c0.046,0,0.087,0.011,0.132,0.014c9.495,0.181,17.236,7.649,17.843,17.036
			c0.031,0.133,0.045,0.263,0.045,0.402V32.472z"/>
	</g>
</g>
<g>
	<g>
		<rect y="50" fill="none" width="50" height="50"/>
	</g>
	<g>
		<path fill="#FCC80D" d="M42.964,75c0,2.453-1.415,4.533-3.521,5.358v2.688c0,0.636-0.518,1.149-1.147,1.149H11.708
			c-0.636,0-1.15-0.515-1.15-1.149v-2.688C8.452,79.533,7.036,77.453,7.036,75c0-2.454,1.416-4.531,3.521-5.356v-2.69
			c0-0.636,0.514-1.148,1.15-1.148h26.587c0.634,0,1.147,0.514,1.147,1.148v2.69C41.549,70.469,42.964,72.546,42.964,75z"/>
	</g>
</g>
<g>
	<g>
		<rect y="100" fill="none" width="50" height="50"/>
	</g>
	<g>
		<path fill="#FCC80D" d="M19.417,119.867c0-3.063,2.5-5.549,5.583-5.549c3.084,0,5.584,2.484,5.584,5.549
			c0,3.065-2.5,5.549-5.584,5.549C21.918,125.416,19.417,122.932,19.417,119.867z M15.508,120.56c0,2.321,2.834,7.214,2.834,7.214
			L25,138.871l6.275-11.098c0,0,3.216-4.928,3.216-7.214c0-5.209-4.249-9.433-9.491-9.433
			C19.758,111.128,15.508,115.351,15.508,120.56z"/>
	</g>
</g>
<g>
	<g>
		<rect y="200" fill="none" width="50" height="50"/>
	</g>
	<g>
		<path fill="#444444" d="M19.418,219.868c0-3.063,2.5-5.549,5.583-5.549s5.584,2.484,5.584,5.549c0,3.065-2.501,5.549-5.584,5.549
			S19.418,222.933,19.418,219.868z M15.509,220.561c0,2.321,2.834,7.214,2.834,7.214L25,238.872l6.277-11.098
			c0,0,3.215-4.928,3.215-7.214c0-5.209-4.25-9.433-9.492-9.433S15.509,215.352,15.509,220.561z"/>
	</g>
</g>
<g>
	<g>
		<rect y="150" fill="none" width="50" height="50"/>
	</g>
	<g>
		<path fill="#FCC80D" d="M11.6,166.128v19.729c0,0,2.667-1.923,6.452-1.923c3.784,0,6.452,1.923,6.452,1.923v-19.481
			c0,0-2.668-2.233-6.452-2.233C14.267,164.142,11.6,166.128,11.6,166.128z"/>
		<path fill="#FCC80D" d="M25.496,166.128v19.729c0,0,2.668-1.923,6.451-1.923c3.785,0,6.453,1.923,6.453,1.923v-19.481
			c0,0-2.668-2.233-6.453-2.233C28.164,164.142,25.496,166.128,25.496,166.128z"/>
	</g>
</g>
<g>
	<g>
		<rect y="250" fill="none" width="50" height="50"/>
	</g>
	<g>
		<path fill="#444444" d="M17.115,263.302c-1.09,0.815-4.175,5.241,1.599,15.271c6.083,10.567,11.873,10.128,13.033,9.412
			l-4.103-6.928c-0.971,0.569-1.787-0.369-3.293-2.41c-0.026-0.017-2.942-4.921-2.952-4.983c-0.602-1.317-1.089-2.665-0.074-3.264
			L17.115,263.302z"/>
		<path fill="#444444" d="M34.249,286.526c0.448-0.269,0.554-0.821,0.313-1.231v-0.005c0,0-3.203-5.396-3.205-5.399
			c-0.254-0.428-0.799-0.562-1.227-0.313l-1.962,1.16l4.112,6.947c0,0,1.963-1.155,1.961-1.157L34.249,286.526z"/>
		<path fill="#444444" d="M23.822,268.924c0.451-0.268,0.557-0.818,0.316-1.227l0.002-0.006c0,0-3.296-5.554-3.296-5.556
			c-0.255-0.431-0.801-0.563-1.225-0.313l-1.963,1.161l4.204,7.101c0,0,1.961-1.153,1.962-1.156V268.924z"/>
	</g>
</g>
<g>
	<g>
		<rect y="300" fill="none" width="50" height="50"/>
	</g>
	<g>
		<path fill="#444444" d="M24.999,311.273c-7.579,0-13.726,6.146-13.726,13.727s6.146,13.728,13.726,13.728
			c7.581,0,13.728-6.146,13.728-13.728S32.58,311.273,24.999,311.273z M24.889,336.115c-6.122,0-11.086-4.965-11.086-11.088
			c0-6.121,4.964-11.086,11.086-11.086c6.123,0,11.087,4.965,11.087,11.086C35.977,331.15,31.012,336.115,24.889,336.115z"/>
		<path fill="#444444" d="M28.093,327.756h-4.191c-0.577,0-1.044-0.468-1.044-1.045v-6.356c0-0.576,0.467-1.045,1.044-1.045
			c0.577,0,1.046,0.469,1.046,1.045v5.313h3.146c0.577,0,1.045,0.469,1.045,1.045C29.139,327.289,28.67,327.756,28.093,327.756z"/>
	</g>
</g>
<g>
	<g>
		<rect y="400" fill="none" width="50" height="50"/>
	</g>
	<path fill="#929AA8" d="M33.95,419.628h-1.193v-2.982c0-4.284-3.474-7.759-7.759-7.759s-7.758,3.475-7.758,7.759v2.982h-1.194
		c-1.977,0-3.581,1.604-3.581,3.583v14.322c0,1.978,1.603,3.581,3.581,3.581h17.905c1.979,0,3.582-1.604,3.581-3.581v-14.322
		C37.532,421.232,35.93,419.628,33.95,419.628z M24.999,434.034c-1.648,0-2.984-1.336-2.984-2.983c0-1.646,1.335-2.982,2.984-2.982
		c1.647,0,2.983,1.336,2.983,2.982C27.982,432.698,26.646,434.034,24.999,434.034z M29.176,419.628v0.073c-2.307,0-1.869,0-4.177,0
		c-2.307,0-2.188,0-4.178,0v-0.073v-2.909c0-2.309,1.871-4.18,4.178-4.18c2.308,0,4.177,1.871,4.177,4.18V419.628z"/>
</g>
<g>
	<g>
		<rect y="450" fill="none" width="50" height="50"/>
	</g>
	<g>
		<path fill="#929AA8" d="M13.769,475.858l4.579-4.579h-2.684c0.025-0.064,0.05-0.133,0.076-0.197
			c1.591-4.031,5.521-6.886,10.117-6.886c6.006,0,10.875,4.869,10.875,10.874c0,6.007-4.867,10.874-10.875,10.874
			c-4.417,0-8.218-2.637-9.92-6.417c-0.017-0.035-0.027-0.074-0.044-0.109l-2.916,2.897c0.02,0.032,0.033,0.07,0.053,0.105
			c0.004,0.007,0.009,0.016,0.013,0.021c2.574,4.442,7.381,7.436,12.887,7.436c8.219,0,14.881-6.662,14.881-14.882
			c0-8.218-6.662-14.879-14.881-14.879c-6.869,0-12.651,4.653-14.364,10.979c-0.016,0.06-0.02,0.12-0.035,0.18H9.19L13.769,475.858z
			"/>
	</g>
</g>
<g>
	<g>
		<rect y="350" fill="none" width="50" height="50"/>
	</g>
	<g>
		<path fill="#929AA8" d="M28.494,380.51c-0.697-0.112-0.715-2.028-0.715-2.028s2.049-2.025,2.496-4.752
			c1.199,0,1.938-2.897,0.74-3.918c0.049-1.074,1.543-8.429-6.019-8.429c-7.559,0-6.066,7.354-6.016,8.429
			c-1.201,1.021-0.459,3.918,0.741,3.918c0.446,2.727,2.495,4.752,2.495,4.752s-0.017,1.916-0.713,2.028
			c-2.245,0.354-10.628,4.054-10.628,8.107H25h14.122C39.121,384.562,30.738,380.864,28.494,380.51z"/>
	</g>
</g>
<g>
	<g>
		<rect y="500" fill="none" width="50" height="50"/>
	</g>
	<path fill="#6D6D6D" d="M30.809,524.991l-13.073,13.073c-0.418,0.418-0.418,1.096,0,1.512l1.639,1.641
		c0.417,0.418,1.095,0.418,1.512,0l15.378-15.379c0.219-0.219,0.313-0.509,0.305-0.794c0.037-0.314-0.049-0.643-0.289-0.884
		l-15.376-15.376c-0.417-0.42-1.095-0.42-1.514,0l-1.637,1.639c-0.419,0.418-0.419,1.095,0,1.513L30.809,524.991z"/>
</g>
<g>
	<g>
		<rect y="550" fill="none" width="50" height="50"/>
	</g>
	<path fill="#6D6D6D" d="M19.191,574.991l13.075,13.073c0.418,0.418,0.418,1.096,0,1.512l-1.641,1.641
		c-0.417,0.418-1.096,0.418-1.514,0l-15.376-15.379c-0.219-0.219-0.316-0.509-0.306-0.794c-0.038-0.314,0.048-0.643,0.29-0.884
		l15.376-15.376c0.416-0.42,1.094-0.42,1.514,0l1.638,1.639c0.419,0.418,0.419,1.095,0,1.514L19.191,574.991z"/>
</g>
<g>
	<g>
		<rect y="600" fill="none" width="50" height="50"/>
	</g>
	<path fill="#B5B5B5" d="M24.991,630.809l13.073-13.074c0.418-0.418,1.096-0.418,1.512,0l1.641,1.642
		c0.418,0.417,0.418,1.096,0,1.514l-15.379,15.377c-0.219,0.219-0.509,0.314-0.795,0.305c-0.314,0.039-0.642-0.047-0.883-0.289
		L8.784,620.904c-0.42-0.416-0.42-1.094,0-1.514l1.638-1.637c0.418-0.42,1.095-0.42,1.514,0L24.991,630.809z"/>
</g>
<g>
	<g>
		<rect y="650" fill="none" width="50" height="50"/>
	</g>
	<g>
		<path fill="#636363" d="M12.5,662.498h10.938v10.939H12.5V662.498z"/>
		<path fill="#636363" d="M26.563,662.498H37.5v10.939H26.563V662.498z"/>
		<path fill="#636363" d="M26.563,676.562H37.5v10.939H26.563V676.562z"/>
		<path fill="#636363" d="M12.5,676.562h10.938v10.939H12.5V676.562z"/>
	</g>
</g>
<g>
	<g>
		<rect y="700" fill="none" width="50" height="50"/>
	</g>
	<g>
		<path fill="#636363" d="M12.5,712.5h6.25v6.252H12.5V712.5z"/>
		<path fill="#636363" d="M12.5,721.875h6.25v6.25H12.5V721.875z"/>
		<path fill="#636363" d="M12.5,731.25h6.25v6.252H12.5V731.25z"/>
		<path fill="#636363" d="M21.875,712.5H37.5v6.252H21.875V712.5z"/>
		<path fill="#636363" d="M21.875,721.875H37.5v6.25H21.875V721.875z"/>
		<path fill="#636363" d="M21.875,731.25H37.5v6.252H21.875V731.25z"/>
	</g>
</g>
</svg>
