<?xml version="1.0" encoding="utf-8"?>
<!-- Generator: Adobe Illustrator 15.1.0, SVG Export Plug-In . SVG Version: 6.00 Build 0)  -->
<!DOCTYPE svg PUBLIC "-//W3C//DTD SVG 1.1//EN" "http://www.w3.org/Graphics/SVG/1.1/DTD/svg11.dtd">
<svg version="1.1" id="圖層_1" xmlns="http://www.w3.org/2000/svg" xmlns:xlink="http://www.w3.org/1999/xlink" x="0px" y="0px"
	 width="100px" height="300px" viewBox="0 0 100 300" enable-background="new 0 0 100 300" xml:space="preserve">
<g>
	<g>
		<g>
			<rect fill="none" width="50" height="50"/>
		</g>
		<g>
			<path fill="#FFFFFF" d="M10.855,13.506h28.291c0.976,0,1.767,0.791,1.767,1.768s-0.791,1.77-1.767,1.77H10.855
				c-0.977,0-1.769-0.793-1.769-1.77S9.879,13.506,10.855,13.506z"/>
			<path fill="#FFFFFF" d="M10.855,23.23h28.291c0.976,0,1.767,0.793,1.767,1.768c0,0.977-0.791,1.768-1.767,1.768H10.855
				c-0.977,0-1.769-0.791-1.769-1.768C9.087,24.023,9.879,23.23,10.855,23.23z"/>
			<path fill="#FFFFFF" d="M10.855,32.953h28.291c0.976,0,1.767,0.793,1.767,1.77s-0.791,1.77-1.767,1.77H10.855
				c-0.977,0-1.769-0.793-1.769-1.77S9.879,32.953,10.855,32.953z"/>
		</g>
	</g>
	<g>
		<g>
			<rect y="50" fill="none" width="50" height="50"/>
		</g>
		<g>
			<path fill="#FFFFFF" d="M29.296,82.812l4.481,4.628c0.513,0.53,1.605,0.585,2.509,0.119c0.963-0.498,1.34-2.555,0.841-3.198
				l-4.399-4.639c-0.771-0.993-2.281-0.962-3.253,0.044C28.581,80.688,28.546,82.038,29.296,82.812z M16.042,71.753
				c0-3.384,2.656-6.128,5.934-6.128s5.933,2.744,5.933,6.128c0,3.383-2.655,6.127-5.933,6.127S16.042,75.136,16.042,71.753z
				 M12.652,71.753c0,5.316,4.174,9.627,9.323,9.627s9.324-4.311,9.324-9.627c0-5.318-4.175-9.628-9.324-9.628
				S12.652,66.435,12.652,71.753z"/>
		</g>
	</g>
	<g>
		<g>
			<rect y="100" fill="none" width="50" height="50"/>
		</g>
		<g>
			<path fill="#FFFFFF" d="M28.453,130.445c-0.688-0.111-0.703-2.004-0.703-2.004s2.023-2.004,2.465-4.699
				c1.188,0,1.92-2.865,0.732-3.875c0.049-1.061,1.525-8.328-5.947-8.328s-5.996,7.268-5.945,8.328
				c-1.189,1.01-0.456,3.875,0.732,3.875c0.439,2.695,2.465,4.699,2.465,4.699s-0.018,1.893-0.705,2.004
				c-2.219,0.352-10.507,4.006-10.507,8.016H25h13.961C38.961,134.451,30.672,130.797,28.453,130.445z"/>
		</g>
	</g>
	<g>
		<g>
			<rect y="200" fill="none" width="50" height="50"/>
		</g>
		<g>
			<path fill="#FFFFFF" d="M32.046,233.199c-1.778,0-3.22,1.445-3.22,3.223c0,1.781,1.441,3.223,3.22,3.223
				c1.78,0,3.222-1.439,3.222-3.223C35.268,234.645,33.826,233.199,32.046,233.199z"/>
			<path fill="#FFFFFF" d="M20.011,233.199c-1.778,0-3.221,1.445-3.221,3.223c0,1.781,1.442,3.223,3.221,3.223
				c1.78,0,3.222-1.439,3.222-3.223C23.232,234.645,21.791,233.199,20.011,233.199z"/>
			<path fill="#FFFFFF" d="M38.477,216.762c-0.377-0.488-0.973-0.777-1.611-0.777H16.502l-1.53-4.352
				c-0.269-0.762-1.024-1.277-1.878-1.277H9.133c-1.096,0-1.98,0.836-1.98,1.875s0.885,1.875,1.98,1.875h2.532l5.489,15.613
				c0.271,0.762,1.028,1.281,1.881,1.281h13.869c0.856,0,1.609-0.52,1.881-1.281l3.961-11.266
				C38.948,217.883,38.846,217.254,38.477,216.762z"/>
		</g>
	</g>
	<g>
		<g>
			<rect y="150" fill="none" width="50" height="50"/>
		</g>
		<path fill="#FFFFFF" d="M25.124,185.707l-0.007-0.01l-0.006,0.01l-9.892-9.568l3.958-4.017l5.938,5.942L38,164.625v-0.721
			c0-1.113-0.896-1.904-2.009-1.904H14.016c-1.113,0-2.016,0.791-2.016,1.904v21.976c0,1.112,0.903,2.12,2.016,2.12h21.975
			c1.113,0,2.009-1.008,2.009-2.12v-13.592L25.124,185.707z"/>
	</g>
	<g>
		<g>
			<rect y="250" fill="none" width="50" height="50"/>
		</g>
		<g>
			<g>
				<path fill="#FFFFFF" d="M31.984,286.125h-14.63v-20.249h14.63c0.347,0,0.628-0.282,0.628-0.628v-3.312
					c0-0.345-0.281-0.627-0.628-0.627H13.416c-0.347,0-0.628,0.282-0.628,0.627v28.129c0,0.346,0.281,0.627,0.628,0.627h18.568
					c0.347,0,0.628-0.281,0.628-0.627v-3.312C32.612,286.405,32.332,286.125,31.984,286.125z"/>
				<path fill="#FFFFFF" d="M43.027,275.557l-8.449-8.449c-0.236-0.234-0.652-0.234-0.888,0l-2.004,2.006
					c-0.245,0.244-0.245,0.643,0,0.888l3.816,3.815h-13.52c-0.347,0-0.628,0.281-0.628,0.629v3.111c0,0.346,0.281,0.627,0.628,0.627
					h13.521l-3.816,3.815c-0.245,0.245-0.245,0.644,0,0.888l2.004,2.006c0.118,0.117,0.278,0.185,0.444,0.185
					c0.167,0,0.326-0.066,0.444-0.185l8.449-8.449c0.118-0.116,0.184-0.276,0.184-0.442
					C43.212,275.833,43.145,275.673,43.027,275.557z"/>
			</g>
		</g>
	</g>
</g>
<g>
	<g>
		<g>
			<rect x="50" fill="none" width="50" height="50"/>
		</g>
		<g>
			<path fill="#FCC80D" d="M60.855,13.506h28.291c0.976,0,1.767,0.791,1.767,1.768s-0.791,1.77-1.767,1.77H60.855
				c-0.979,0-1.771-0.793-1.771-1.77S59.879,13.506,60.855,13.506z"/>
			<path fill="#FCC80D" d="M60.855,23.23h28.291c0.976,0,1.767,0.793,1.767,1.768c0,0.977-0.791,1.768-1.767,1.768H60.855
				c-0.979,0-1.771-0.791-1.771-1.768C59.087,24.023,59.879,23.23,60.855,23.23z"/>
			<path fill="#FCC80D" d="M60.855,32.953h28.291c0.976,0,1.767,0.793,1.767,1.77s-0.791,1.77-1.767,1.77H60.855
				c-0.979,0-1.771-0.793-1.771-1.77S59.879,32.953,60.855,32.953z"/>
		</g>
	</g>
	<g>
		<g>
			<rect x="50" y="50" fill="none" width="50" height="50"/>
		</g>
		<g>
			<path fill="#FCC80D" d="M79.296,82.812l4.481,4.628c0.513,0.53,1.604,0.585,2.509,0.119c0.963-0.498,1.34-2.555,0.841-3.198
				l-4.398-4.639c-0.771-0.993-2.28-0.962-3.254,0.044C78.581,80.688,78.546,82.038,79.296,82.812z M66.042,71.753
				c0-3.384,2.656-6.128,5.935-6.128c3.277,0,5.934,2.744,5.934,6.128c0,3.383-2.655,6.127-5.934,6.127S66.042,75.136,66.042,71.753
				z M62.652,71.753c0,5.316,4.174,9.627,9.322,9.627s9.323-4.311,9.323-9.627c0-5.318-4.175-9.628-9.323-9.628
				S62.652,66.435,62.652,71.753z"/>
		</g>
	</g>
	<g>
		<g>
			<rect x="50" y="100" fill="none" width="50" height="50"/>
		</g>
		<g>
			<path fill="#FCC80D" d="M78.453,130.445c-0.688-0.111-0.703-2.004-0.703-2.004s2.023-2.004,2.465-4.699
				c1.188,0,1.92-2.865,0.732-3.875c0.049-1.061,1.525-8.328-5.947-8.328s-5.996,7.268-5.945,8.328
				c-1.188,1.01-0.455,3.875,0.732,3.875c0.439,2.695,2.465,4.699,2.465,4.699s-0.018,1.893-0.705,2.004
				c-2.219,0.352-10.507,4.006-10.507,8.016H75h13.961C88.961,134.451,80.672,130.797,78.453,130.445z"/>
		</g>
	</g>
	<g>
		<g>
			<rect x="50" y="200" fill="none" width="50" height="50"/>
		</g>
		<g>
			<path fill="#FCC80D" d="M82.046,233.199c-1.778,0-3.22,1.445-3.22,3.223c0,1.781,1.441,3.223,3.22,3.223
				c1.78,0,3.222-1.439,3.222-3.223C85.268,234.645,83.826,233.199,82.046,233.199z"/>
			<path fill="#FCC80D" d="M70.012,233.199c-1.779,0-3.222,1.445-3.222,3.223c0,1.781,1.442,3.223,3.222,3.223
				c1.78,0,3.221-1.439,3.221-3.223C73.232,234.645,71.791,233.199,70.012,233.199z"/>
			<path fill="#FCC80D" d="M88.477,216.762c-0.377-0.488-0.973-0.777-1.609-0.777H66.502l-1.529-4.352
				c-0.27-0.762-1.023-1.277-1.879-1.277h-3.961c-1.096,0-1.98,0.836-1.98,1.875s0.887,1.875,1.98,1.875h2.532l5.489,15.613
				c0.271,0.762,1.027,1.281,1.881,1.281h13.869c0.854,0,1.609-0.52,1.881-1.281l3.961-11.266
				C88.948,217.883,88.846,217.254,88.477,216.762z"/>
		</g>
	</g>
	<g>
		<g>
			<rect x="50" y="150" fill="none" width="50" height="50"/>
		</g>
		<path fill="#FCC80D" d="M75.123,185.707l-0.007-0.01l-0.007,0.01l-9.894-9.568l3.958-4.017l5.938,5.942L88,164.625v-0.721
			c0-1.113-0.896-1.904-2.009-1.904H64.016c-1.113,0-2.016,0.791-2.016,1.904v21.976c0,1.112,0.902,2.12,2.016,2.12h21.978
			c1.11,0,2.009-1.008,2.009-2.12v-13.592L75.123,185.707z"/>
	</g>
	<g>
		<g>
			<rect x="50" y="250" fill="none" width="50" height="50"/>
		</g>
		<g>
			<g>
				<path fill="#FCC80D" d="M81.984,286.125H67.354v-20.249h14.631c0.348,0,0.629-0.282,0.629-0.628v-3.312
					c0-0.345-0.281-0.627-0.629-0.627H63.416c-0.348,0-0.628,0.282-0.628,0.627v28.129c0,0.346,0.28,0.627,0.628,0.627h18.568
					c0.348,0,0.627-0.281,0.627-0.627v-3.312C82.611,286.405,82.332,286.125,81.984,286.125z"/>
				<path fill="#FCC80D" d="M93.027,275.557l-8.449-8.449c-0.235-0.234-0.652-0.234-0.887,0l-2.006,2.006
					c-0.244,0.244-0.244,0.643,0,0.888l3.816,3.816h-13.52c-0.348,0-0.629,0.28-0.629,0.628v3.111c0,0.347,0.281,0.627,0.629,0.627
					h13.521l-3.815,3.815c-0.246,0.245-0.246,0.644,0,0.888l2.004,2.006c0.117,0.117,0.277,0.185,0.443,0.185
					c0.167,0,0.326-0.065,0.444-0.185l8.448-8.448c0.117-0.117,0.185-0.277,0.185-0.443
					C93.212,275.833,93.145,275.673,93.027,275.557z"/>
			</g>
		</g>
	</g>
</g>
</svg>
